<?xml version="1.0" encoding="UTF-8" standalone="no"?>
<svg
   width="132.16534"
   height="28.184917"
   viewBox="0 0 374.46848 59.501439"
   version="1.1"
   id="svg846"
   sodipodi:docname="doveFinalG.svg"
   inkscape:version="1.1.1 (3bf5ae0d25, 2021-09-20)"
   xmlns:inkscape="http://www.inkscape.org/namespaces/inkscape"
   xmlns:sodipodi="http://sodipodi.sourceforge.net/DTD/sodipodi-0.dtd"
   xmlns="http://www.w3.org/2000/svg"
   xmlns:svg="http://www.w3.org/2000/svg">
  <defs
     id="defs850" />
  <sodipodi:namedview
     id="namedview848"
     pagecolor="#ffffff"
     bordercolor="#666666"
     borderopacity="1.0"
     inkscape:pageshadow="2"
     inkscape:pageopacity="0.0"
     inkscape:pagecheckerboard="0"
     showgrid="false"
     inkscape:zoom="5.1079648"
     inkscape:cx="45.810809"
     inkscape:cy="-21.632882"
     inkscape:window-width="1920"
     inkscape:window-height="1001"
     inkscape:window-x="-9"
     inkscape:window-y="-9"
     inkscape:window-maximized="1"
     inkscape:current-layer="svg846" />
  <g
     transform="translate(-8.8378358,-979.30596)"
     id="g840" />
  <g
     id="SvgjsG2153"
     featurekey="5TMTKC-0"
     transform="matrix(1.25,0,0,1.25,-21.337828,-41.943629)"
     fill="#7bfa1a" />
  <g
     id="SvgjsG2154"
     featurekey="7UBp9i-0"
     transform="matrix(5.0813007,0,0,5.0813007,109.84102,-44.281181)"
     fill="#ffffff" />
  <g
     aria-label="TPC"
     transform="matrix(1.0001259,0,0,0.99987413,-8.8378358,-26.943782)"
     id="text4145"
     style="font-size:108.754px;line-height:1.25;font-family:'Eurostile Extended';-inkscape-font-specification:'Eurostile Extended, Normal';fill:#ffffff;stroke-width:2.91305">
    <path
       d="m 146.71838,88.326889 v -65.14364 h -36.54134 v -7.395271 h 82.10926 v 7.395271 h -36.75885 v 65.14364 z"
       style="font-size:108.754px"
       id="path25525" />
    <path
       d="m 283.422,36.451236 q 0,6.198977 -0.87003,10.984153 -0.87003,4.785175 -3.48013,7.395271 -2.50134,2.610096 -6.30773,3.915144 -3.80639,1.196294 -11.41917,1.196294 h -50.78811 v 28.384791 h -8.80907 V 15.787978 h 60.14095 q 11.85419,0 16.63936,4.458913 4.89393,4.35016 4.89393,16.204345 z m -9.13533,0.435016 q 0,-7.61278 -2.8276,-10.657891 -2.82761,-3.045112 -10.44039,-3.045112 H 210.55683 V 52.65558 H 256.016 q 10.8754,0 14.57303,-2.718849 3.69764,-2.71885 3.69764,-13.050479 z"
       style="font-size:108.754px"
       id="path25527" />
    <path
       d="m 359.11466,88.761905 -18.70569,0.326262 -8.04779,0.108754 -16.09559,-0.761278 Q 296.90737,86.478071 296.90737,67.663631 l -0.43501,-13.811757 q 0,-8.265303 0.10875,-12.289201 0.21751,-4.023897 1.63131,-11.201661 1.4138,-7.177763 6.8515,-10.875399 5.4377,-3.697635 15.11681,-3.697635 4.35016,-0.435016 8.15655,-0.54377 3.91514,-0.108754 9.13533,-0.108754 h 2.6101 L 350.52309,15.0267 q 6.30773,0 10.22288,0.326262 3.91514,0.217508 10.22287,1.522555 6.41649,1.305048 8.91783,6.960256 2.50134,5.655207 2.50134,15.116804 h -8.70032 v -0.652523 q 0,-4.89393 -0.65252,-8.047796 -0.54377,-3.153865 -2.82761,-4.567667 -2.17508,-1.413802 -8.15655,-2.17508 -5.98146,-0.761278 -16.5306,-0.761278 -3.91515,0 -11.85419,0.326262 -7.93904,0.326262 -11.96294,0.326262 -9.35284,0.761278 -11.96293,3.371374 -2.6101,2.501341 -3.26262,8.809073 -0.65253,6.307731 -0.76128,11.527923 -0.10876,5.111437 -0.10876,9.787859 0,13.811757 2.71885,19.031948 2.82761,5.220192 14.79055,5.220192 l 16.96562,0.217508 16.20434,-0.217508 q 10.00537,0 13.92051,-2.392588 3.91515,-2.392588 3.91515,-11.527923 v -2.936358 h 9.13533 q 0,14.246773 -4.35016,19.35821 -4.35016,5.111438 -19.79322,5.111438 z"
       style="font-size:108.754px"
       id="path25529" />
  </g>
  <g
     inkscape:groupmode="layer"
     id="layer3"
     inkscape:label="new"
     style="display:inline"
     transform="translate(-8.8378358,-26.943782)">
    <path
       style="fill:#7bfa1a;fill-opacity:1;stroke:#00ff00;stroke-width:0.714;stroke-linecap:butt;stroke-linejoin:miter;stroke-miterlimit:4;stroke-dasharray:none;stroke-opacity:1"
       d="m 9.4165733,24.223664 7.0766537,-3.005891 c -5.892266,6.940344 5.502315,18.316537 -7.0766537,3.005891 z"
       id="path15765"
       sodipodi:nodetypes="ccc" />
    <path
       style="fill:#ffa200;fill-opacity:1;stroke:#00ff00;stroke-width:0.697;stroke-linecap:butt;stroke-linejoin:miter;stroke-miterlimit:4;stroke-dasharray:none;stroke-opacity:1"
       d="m 18.464917,20.04487 h 5.611979 L 36.373667,34.892219 31.068245,40.23577 H 18.464917 Z"
       id="path15880" />
    <path
       style="fill:#a528c5;fill-opacity:1;stroke:#00ff00;stroke-width:0.717096;stroke-linecap:butt;stroke-linejoin:miter;stroke-miterlimit:4;stroke-dasharray:none;stroke-opacity:1"
       d="M 19.900026,42.265384 48.958428,74.040353 60.189293,42.265384 Z"
       id="path15882" />
    <path
       style="fill:#1d872a;fill-opacity:1;stroke:#00ff00;stroke-width:0.696063;stroke-linecap:butt;stroke-linejoin:miter;stroke-miterlimit:4;stroke-dasharray:none;stroke-opacity:1"
       d="m 33.921182,40.23577 25.677046,-26.7845 v 26.7845 z"
       id="path15997" />
    <path
       style="fill:#1d87c5;fill-opacity:1;stroke:#00ff00;stroke-width:0.696063;stroke-linecap:butt;stroke-linejoin:miter;stroke-miterlimit:4;stroke-dasharray:none;stroke-opacity:1"
       d="m 61.604684,11.99997 28.6566,-0.92924 -28.6566,27.80844 z"
       id="path15999" />
    <path
       style="fill:#24f7ee;fill-opacity:1;stroke:#00ff00;stroke-width:0.696063;stroke-linecap:butt;stroke-linejoin:miter;stroke-miterlimit:4;stroke-dasharray:none;stroke-opacity:1"
       d="M 60.669824,48.937347 65.589856,90.139635 60.669824,48.937347 46.37353,87.279591 65.589856,90.139635 Z"
       id="path16001" />
    <path
       style="fill:#1d872a;fill-opacity:1;stroke:#00ff00;stroke-width:0.826104;stroke-linecap:butt;stroke-linejoin:miter;stroke-miterlimit:4;stroke-dasharray:none;stroke-opacity:1"
       d="m 78.546083,26.769563 10.582891,-10.679445 4.94287,4.025846 z"
       id="path16003" />
  </g>
</svg>
