<?xml version="1.0" encoding="UTF-8" standalone="no"?>
<svg
   width="120"
   height="45.00007629394531"
   viewBox="0 0 340 95.00007629394531"
   version="1.1"
   id="svg846"
   sodipodi:docname="dove.svg"
   inkscape:version="1.1.1 (3bf5ae0d25, 2021-09-20)"
   xmlns:inkscape="http://www.inkscape.org/namespaces/inkscape"
   xmlns:sodipodi="http://sodipodi.sourceforge.net/DTD/sodipodi-0.dtd"
   xmlns="http://www.w3.org/2000/svg"
   xmlns:svg="http://www.w3.org/2000/svg">
  <defs
     id="defs850" />
  <sodipodi:namedview
     id="namedview848"
     pagecolor="#ffffff"
     bordercolor="#666666"
     borderopacity="1.0"
     inkscape:pageshadow="2"
     inkscape:pageopacity="0.0"
     inkscape:pagecheckerboard="0"
     showgrid="false"
     inkscape:zoom="10.941667"
     inkscape:cx="60"
     inkscape:cy="22.528561"
     inkscape:window-width="1920"
     inkscape:window-height="1001"
     inkscape:window-x="-9"
     inkscape:window-y="-9"
     inkscape:window-maximized="1"
     inkscape:current-layer="g840" />
  <g
     transform="translate(0,-952.36218)"
     id="g840">
    <path
       d="m 61.604685,964.36215 28.6566,-0.92924 -28.6566,27.80844 z m -2.006456,1.4513 v 26.7845 H 33.921182 c 8.756054,-8.7334 17.152785,-17.8103 25.677047,-26.7845 z m 28.153691,3.628 3.542825,1.1989 -12.791423,7.4768 z m -69.287003,2.9656 h 5.611979 l 13.073618,14.0705 -6.08227,6.1204 H 18.464917 c 9.14e-4,-6.7347 0,-13.4597 0,-20.1909 z m -2.006558,1.2304 v 5.8364 l -6.9762569,-2.33054 z m 3.417428,20.9796 h 39.252152 l -10.941765,30.72935 z m 39.722442,4.54286 2.58949,40.68439 -15.381015,-6.3596 c 4.265129,-11.443 8.524364,-22.879 12.791525,-34.32479 z"
       style="text-indent:0;text-transform:none;direction:ltr;baseline-shift:baseline;stroke-width:1.00806;enable-background:accumulate"
       fill="#7bfa1a"
       fill-opacity="1"
       stroke="none"
       marker="none"
       visibility="visible"
       display="inline"
       overflow="visible"
       id="path838"
       sodipodi:nodetypes="cccccccccccccccccccccccccccccc" />
  </g>
  <g
     id="SvgjsG2153"
     featurekey="5TMTKC-0"
     transform="matrix(1.25,0,0,1.25,-12.499991655349731,-14.999847412109375)"
     fill="#7bfa1a" />
  <g
     id="SvgjsG2154"
     featurekey="7UBp9i-0"
     transform="matrix(5.081300734212911,0,0,5.081300734212911,118.6788630690402,-17.33739853157418)"
     fill="#ffffff">
    <path
       d="M11.96 5.720000000000001 l0 2.64 l-4.28 0 l0 11.64 l-3.14 0 l0 -11.64 l-4.28 0 l0 -2.64 l11.7 0 z M20.060000000000002 5.720000000000001 c1.52 0 2.72 0.41334 3.6 1.24 s1.32 1.94 1.32 3.34 c0 1.4133 -0.44 2.53 -1.32 3.35 s-2.0734 1.23 -3.58 1.23 l-3.34 0 l0 5.12 l-3.14 0 l0 -14.28 l6.46 0 z M19.240000000000002 12.440000000000001 c0.90666 0 1.5833 -0.16666 2.03 -0.5 s0.67 -0.88 0.67 -1.64 c0 -0.73334 -0.21666 -1.2733 -0.65 -1.62 s-1.11 -0.52 -2.03 -0.52 l-2.52 0 l0 4.28 l2.5 0 z M33.34 5.380000000000001 c1.6667 0 3.0666 0.47 4.2 1.41 s1.7867 2.1834 1.96 3.73 l-3.04 0 c-0.10666 -0.70666 -0.46 -1.3 -1.06 -1.78 s-1.2867 -0.72 -2.06 -0.72 c-1.2267 0 -2.18 0.44 -2.86 1.32 s-1.02 2.0734 -1.02 3.58 c0 1.4667 0.34334 2.63 1.03 3.49 s1.6367 1.29 2.85 1.29 c0.90666 0 1.64 -0.27666 2.2 -0.83 s0.90666 -1.3433 1.04 -2.37 l3.04 0 c-0.16 1.8133 -0.81 3.24 -1.95 4.28 s-2.5834 1.56 -4.33 1.56 c-2.0934 0 -3.7866 -0.69 -5.08 -2.07 s-1.94 -3.1634 -1.94 -5.35 c0 -2.2134 0.64 -4.0234 1.92 -5.43 s2.98 -2.11 5.1 -2.11 z"
       id="path843" />
  </g>
</svg>
