<?xml version="1.0" encoding="UTF-8" standalone="no"?>
<!-- Generator: Adobe Illustrator 19.0.0, SVG Export Plug-In . SVG Version: 6.00 Build 0)  -->

<svg
   version="1.1"
   id="Layer_1"
   x="0px"
   y="0px"
   viewBox="0 0 504.4 504.4"
   style="enable-background:new 0 0 504.4 504.4;"
   xml:space="preserve"
   sodipodi:docname="linkedin.svg"
   inkscape:version="1.1.1 (3bf5ae0d25, 2021-09-20)"
   xmlns:inkscape="http://www.inkscape.org/namespaces/inkscape"
   xmlns:sodipodi="http://sodipodi.sourceforge.net/DTD/sodipodi-0.dtd"
   xmlns="http://www.w3.org/2000/svg"
   xmlns:svg="http://www.w3.org/2000/svg"><defs
   id="defs3684" /><sodipodi:namedview
   id="namedview3682"
   pagecolor="#ffffff"
   bordercolor="#666666"
   borderopacity="1.0"
   inkscape:pageshadow="2"
   inkscape:pageopacity="0.0"
   inkscape:pagecheckerboard="0"
   showgrid="false"
   inkscape:zoom="0.38808485"
   inkscape:cx="-144.29834"
   inkscape:cy="480.56501"
   inkscape:window-width="1920"
   inkscape:window-height="1001"
   inkscape:window-x="-9"
   inkscape:window-y="-9"
   inkscape:window-maximized="1"
   inkscape:current-layer="Layer_1" />
<g
   id="g3649"
   transform="matrix(0.86986251,0,0,0.86621909,53.241832,2.4082027)">
	<g
   id="g3647">
		<path
   d="M 377.6,0.2 H 126.4 C 56.8,0.2 0,57 0,126.6 v 251.6 c 0,69.2 56.8,126 126.4,126 H 378 c 69.6,0 126.4,-56.8 126.4,-126.4 V 126.6 C 504,57 447.2,0.2 377.6,0.2 Z M 168,408.2 H 96 v -208 h 72 z m -36.4,-240 c -20.4,0 -36.8,-16.4 -36.8,-36.8 0,-20.4 16.4,-36.8 36.8,-36.8 20.4,0 36.8,16.4 36.8,36.8 -0.4,20.4 -16.8,36.8 -36.8,36.8 z m 276.8,240 H 408 348 V 307.4 c 0,-24.4 -3.2,-55.6 -36.4,-55.6 -34,0 -39.6,26.4 -39.6,54 v 102.4 h -60 v -208 h 56 v 28 h 1.6 c 8.8,-16 29.2,-28.4 61.2,-28.4 66,0 77.6,38 77.6,94.4 z"
   id="path3645" />
	</g>
</g>
<g
   id="g3651">
</g>
<g
   id="g3653">
</g>
<g
   id="g3655">
</g>
<g
   id="g3657">
</g>
<g
   id="g3659">
</g>
<g
   id="g3661">
</g>
<g
   id="g3663">
</g>
<g
   id="g3665">
</g>
<g
   id="g3667">
</g>
<g
   id="g3669">
</g>
<g
   id="g3671">
</g>
<g
   id="g3673">
</g>
<g
   id="g3675">
</g>
<g
   id="g3677">
</g>
<g
   id="g3679">
</g>
</svg>
