<?xml version="1.0" encoding="UTF-8" standalone="no"?>
<svg
   xmlns:dc="http://purl.org/dc/elements/1.1/"
   xmlns:cc="http://creativecommons.org/ns#"
   xmlns:rdf="http://www.w3.org/1999/02/22-rdf-syntax-ns#"
   xmlns:svg="http://www.w3.org/2000/svg"
   xmlns="http://www.w3.org/2000/svg"
   id="svg8"
   preserveAspectRatio="xMidYMid meet"
   viewBox="0 0 40.000000 35.000000"
   height="35.000000pt"
   width="40.000000pt"
   version="1.0">
  <defs
     id="defs12" />
  <metadata
     id="metadata2">
Created by potrace 1.16, written by Peter Selinger 2001-2019
<rdf:RDF>
  <cc:Work
     rdf:about="">
    <dc:format>image/svg+xml</dc:format>
    <dc:type
       rdf:resource="http://purl.org/dc/dcmitype/StillImage" />
  </cc:Work>
</rdf:RDF>
</metadata>
  <g
     id="g6"
     stroke="none"
     fill="#000000"
     transform="translate(0.000000,35.000000) scale(0.100000,-0.100000)">
    <path
       id="path4"
       d="M0 210 l0 -140 80 0 c79 0 80 0 80 -25 0 -16 -6 -25 -15 -25 -8 0 -15 -4 -15 -10 0 -6 30 -10 70 -10 40 0 70 4 70 10 0 6 -7 10 -15 10 -9 0 -15 9 -15 25 0 25 1 25 80 25 l80 0 0 140 0 140 -200 0 -200 0 0 -140z m380 0 l0 -120 -182 2 -183 3 -3 104 c-1 58 0 111 2 118 4 10 46 13 186 13 l180 0 0 -120z" />
  </g>
</svg>
